<?xml version="1.0" encoding="UTF-8" standalone="no"?>
<!DOCTYPE svg PUBLIC "-//W3C//DTD SVG 1.1//EN"
 "http://www.w3.org/Graphics/SVG/1.1/DTD/svg11.dtd">
<!-- Generated by graphviz version 2.26.3 (20100126.1600)
 -->
<!-- Title: rougequeuenoir Pages: 1 -->
<svg width="1747pt" height="1870pt"
 viewBox="0.00 0.00 1747.00 1870.29" xmlns="http://www.w3.org/2000/svg" xmlns:xlink="http://www.w3.org/1999/xlink">
<g id="graph1" class="graph" transform="scale(1 1) rotate(0) translate(4 1866.29)">
<title>rougequeuenoir</title>
<polygon fill="white" stroke="white" points="-4,5 -4,-1866.29 1744,-1866.29 1744,5 -4,5"/>
<!--  1 -->
<g id="node1" class="node"><title> 1</title>
<text text-anchor="middle" x="417.086" y="-255.647" font-family="Times,serif" font-size="12.00"> 1</text>
</g>
<!--  2 -->
<g id="node3" class="node"><title> 2</title>
<text text-anchor="middle" x="523.256" y="-327.507" font-family="Times,serif" font-size="12.00"> 2</text>
</g>
<!--  1&#45;&#45; 2 -->
<g id="edge2" class="edge"><title> 1&#45;&#45; 2</title>
<path fill="none" stroke="black" d="M443.877,-278.081C459.972,-288.974 480.381,-302.787 496.474,-313.68"/>
<text text-anchor="middle" x="474.176" y="-286.38" font-family="Times,serif" font-size="10.00">2</text>
</g>
<!--  64 -->
<g id="node5" class="node"><title> 64</title>
<text text-anchor="middle" x="491.047" y="-155.357" font-family="Times,serif" font-size="12.00"> 64</text>
</g>
<!--  2&#45;&#45; 64 -->
<g id="edge4" class="edge"><title> 2&#45;&#45; 64</title>
<path fill="none" stroke="black" d="M519.87,-313.709C513.684,-280.647 500.624,-210.845 494.436,-177.771"/>
<text text-anchor="middle" x="502.153" y="-242.24" font-family="Times,serif" font-size="10.00">2</text>
</g>
<!--  27 -->
<g id="node7" class="node"><title> 27</title>
<text text-anchor="middle" x="336.962" y="-369.767" font-family="Times,serif" font-size="12.00"> 27</text>
</g>
<!--  2&#45;&#45; 27 -->
<g id="edge6" class="edge"><title> 2&#45;&#45; 27</title>
<path fill="none" stroke="black" d="M496.168,-337.952C460.847,-345.964 399.419,-359.899 364.083,-367.915"/>
<text text-anchor="middle" x="429.125" y="-342.434" font-family="Times,serif" font-size="10.00">2</text>
</g>
<!--  54 -->
<g id="node9" class="node"><title> 54</title>
<text text-anchor="middle" x="606.199" y="-342.316" font-family="Times,serif" font-size="12.00"> 54</text>
</g>
<!--  2&#45;&#45; 54 -->
<g id="edge8" class="edge"><title> 2&#45;&#45; 54</title>
<path fill="none" stroke="black" d="M550.415,-336.656C559.581,-338.293 569.809,-340.119 578.98,-341.756"/>
<text text-anchor="middle" x="563.697" y="-341.706" font-family="Times,serif" font-size="10.00">1</text>
</g>
<!--  66 -->
<g id="node144" class="node"><title> 66</title>
<text text-anchor="middle" x="463.56" y="-83.044" font-family="Times,serif" font-size="12.00"> 66</text>
</g>
<!--  64&#45;&#45; 66 -->
<g id="edge142" class="edge"><title> 64&#45;&#45; 66</title>
<path fill="none" stroke="black" d="M484.111,-141.41C479.944,-130.447 474.66,-116.547 470.494,-105.586"/>
<text text-anchor="middle" x="472.302" y="-120.998" font-family="Times,serif" font-size="10.00">1</text>
</g>
<!--  39 -->
<g id="node84" class="node"><title> 39</title>
<text text-anchor="middle" x="257.729" y="-362.237" font-family="Times,serif" font-size="12.00"> 39</text>
</g>
<!--  27&#45;&#45; 39 -->
<g id="edge76" class="edge"><title> 27&#45;&#45; 39</title>
<path fill="none" stroke="black" d="M309.694,-371.476C301.637,-370.71 292.822,-369.872 284.779,-369.108"/>
<text text-anchor="middle" x="297.236" y="-372.792" font-family="Times,serif" font-size="10.00">1</text>
</g>
<!--  3 -->
<g id="node10" class="node"><title> 3</title>
<text text-anchor="middle" x="1147.34" y="-775.842" font-family="Times,serif" font-size="12.00"> 3</text>
</g>
<!--  18 -->
<g id="node12" class="node"><title> 18</title>
<text text-anchor="middle" x="1222.4" y="-726.904" font-family="Times,serif" font-size="12.00"> 18</text>
</g>
<!--  3&#45;&#45; 18 -->
<g id="edge10" class="edge"><title> 3&#45;&#45; 18</title>
<path fill="none" stroke="black" d="M1174.44,-762.474C1181.24,-758.039 1188.54,-753.28 1195.34,-748.846"/>
<text text-anchor="middle" x="1188.89" y="-758.16" font-family="Times,serif" font-size="10.00">1</text>
</g>
<!--  16 -->
<g id="node14" class="node"><title> 16</title>
<text text-anchor="middle" x="1071.47" y="-825.268" font-family="Times,serif" font-size="12.00"> 16</text>
</g>
<!--  3&#45;&#45; 16 -->
<g id="edge12" class="edge"><title> 3&#45;&#45; 16</title>
<path fill="none" stroke="black" d="M1119.95,-797.986C1112.99,-802.521 1105.52,-807.391 1098.57,-811.916"/>
<text text-anchor="middle" x="1112.26" y="-807.451" font-family="Times,serif" font-size="10.00">1</text>
</g>
<!--  20 -->
<g id="node19" class="node"><title> 20</title>
<text text-anchor="middle" x="1313.21" y="-705.37" font-family="Times,serif" font-size="12.00"> 20</text>
</g>
<!--  18&#45;&#45; 20 -->
<g id="edge56" class="edge"><title> 18&#45;&#45; 20</title>
<path fill="none" stroke="black" d="M1249.65,-724.743C1261.14,-722.018 1274.49,-718.852 1285.98,-716.127"/>
<text text-anchor="middle" x="1266.81" y="-710.935" font-family="Times,serif" font-size="10.00">1</text>
</g>
<!--  62 -->
<g id="node59" class="node"><title> 62</title>
<text text-anchor="middle" x="1266.11" y="-674.595" font-family="Times,serif" font-size="12.00"> 62</text>
</g>
<!--  18&#45;&#45; 62 -->
<g id="edge52" class="edge"><title> 18&#45;&#45; 62</title>
<path fill="none" stroke="black" d="M1237.44,-713.202C1241.79,-708.001 1246.53,-702.322 1250.89,-697.108"/>
<text text-anchor="middle" x="1249.17" y="-705.655" font-family="Times,serif" font-size="10.00">1</text>
</g>
<!--  46 -->
<g id="node61" class="node"><title> 46</title>
<text text-anchor="middle" x="1218.2" y="-646.623" font-family="Times,serif" font-size="12.00"> 46</text>
</g>
<!--  18&#45;&#45; 46 -->
<g id="edge54" class="edge"><title> 18&#45;&#45; 46</title>
<path fill="none" stroke="black" d="M1221.45,-712.987C1220.76,-699.849 1219.84,-682.19 1219.15,-669.068"/>
<text text-anchor="middle" x="1217.3" y="-687.528" font-family="Times,serif" font-size="10.00">1</text>
</g>
<!--  68 -->
<g id="node47" class="node"><title> 68</title>
<text text-anchor="middle" x="1103.97" y="-908.192" font-family="Times,serif" font-size="12.00"> 68</text>
</g>
<!--  16&#45;&#45; 68 -->
<g id="edge48" class="edge"><title> 16&#45;&#45; 68</title>
<path fill="none" stroke="black" d="M1078.69,-847.972C1084.11,-861.809 1091.5,-880.671 1096.89,-894.426"/>
<text text-anchor="middle" x="1092.79" y="-865.699" font-family="Times,serif" font-size="10.00">1</text>
</g>
<!--  50 -->
<g id="node57" class="node"><title> 50</title>
<text text-anchor="middle" x="981.143" y="-794.907" font-family="Times,serif" font-size="12.00"> 50</text>
</g>
<!--  16&#45;&#45; 50 -->
<g id="edge50" class="edge"><title> 16&#45;&#45; 50</title>
<path fill="none" stroke="black" d="M1044.37,-820.459C1032.94,-816.616 1019.66,-812.152 1008.23,-808.31"/>
<text text-anchor="middle" x="1024.3" y="-816.884" font-family="Times,serif" font-size="10.00">1</text>
</g>
<!--  4 -->
<g id="node15" class="node"><title> 4</title>
<text text-anchor="middle" x="1377.15" y="-645.949" font-family="Times,serif" font-size="12.00"> 4</text>
</g>
<!--  36 -->
<g id="node17" class="node"><title> 36</title>
<text text-anchor="middle" x="1503.88" y="-532.681" font-family="Times,serif" font-size="12.00"> 36</text>
</g>
<!--  4&#45;&#45; 36 -->
<g id="edge14" class="edge"><title> 4&#45;&#45; 36</title>
<path fill="none" stroke="black" d="M1397.51,-632.051C1421.16,-610.914 1459.94,-576.252 1483.57,-555.134"/>
<text text-anchor="middle" x="1444.54" y="-595.092" font-family="Times,serif" font-size="10.00">2</text>
</g>
<!--  4&#45;&#45; 20 -->
<g id="edge16" class="edge"><title> 4&#45;&#45; 20</title>
<path fill="none" stroke="black" d="M1357.61,-668.4C1349.68,-675.773 1340.54,-684.27 1332.62,-691.63"/>
<text text-anchor="middle" x="1349.12" y="-681.515" font-family="Times,serif" font-size="10.00">1</text>
</g>
<!--  5 -->
<g id="node20" class="node"><title> 5</title>
<text text-anchor="middle" x="966.421" y="-554.509" font-family="Times,serif" font-size="12.00"> 5</text>
</g>
<!--  6 -->
<g id="node22" class="node"><title> 6</title>
<text text-anchor="middle" x="1012.99" y="-483.937" font-family="Times,serif" font-size="12.00"> 6</text>
</g>
<!--  5&#45;&#45; 6 -->
<g id="edge18" class="edge"><title> 5&#45;&#45; 6</title>
<path fill="none" stroke="black" d="M978.414,-540.635C985.314,-530.18 993.958,-517.08 1000.88,-506.595"/>
<text text-anchor="middle" x="984.646" y="-517.115" font-family="Times,serif" font-size="10.00">1</text>
</g>
<!--  65 -->
<g id="node24" class="node"><title> 65</title>
<text text-anchor="middle" x="909.944" y="-622.08" font-family="Times,serif" font-size="12.00"> 65</text>
</g>
<!--  5&#45;&#45; 65 -->
<g id="edge20" class="edge"><title> 5&#45;&#45; 65</title>
<path fill="none" stroke="black" d="M951.286,-576.917C943.183,-586.612 933.23,-598.519 925.121,-608.222"/>
<text text-anchor="middle" x="933.203" y="-585.069" font-family="Times,serif" font-size="10.00">1</text>
</g>
<!--  15 -->
<g id="node26" class="node"><title> 15</title>
<text text-anchor="middle" x="1055.62" y="-415.351" font-family="Times,serif" font-size="12.00"> 15</text>
</g>
<!--  6&#45;&#45; 15 -->
<g id="edge22" class="edge"><title> 6&#45;&#45; 15</title>
<path fill="none" stroke="black" d="M1024.19,-470.217C1030.41,-460.215 1038.12,-447.81 1044.34,-437.789"/>
<text text-anchor="middle" x="1039.27" y="-453.503" font-family="Times,serif" font-size="10.00">1</text>
</g>
<!--  7 -->
<g id="node27" class="node"><title> 7</title>
<text text-anchor="middle" x="1192.62" y="-1056.76" font-family="Times,serif" font-size="12.00"> 7</text>
</g>
<!--  71 -->
<g id="node29" class="node"><title> 71</title>
<text text-anchor="middle" x="1269.54" y="-1032.53" font-family="Times,serif" font-size="12.00"> 71</text>
</g>
<!--  7&#45;&#45; 71 -->
<g id="edge24" class="edge"><title> 7&#45;&#45; 71</title>
<path fill="none" stroke="black" d="M1219.96,-1052.45C1227.21,-1050.16 1235.05,-1047.7 1242.29,-1045.41"/>
<text text-anchor="middle" x="1229.13" y="-1039.43" font-family="Times,serif" font-size="10.00">1</text>
</g>
<!--  51 -->
<g id="node31" class="node"><title> 51</title>
<text text-anchor="middle" x="1208.94" y="-1142.96" font-family="Times,serif" font-size="12.00"> 51</text>
</g>
<!--  7&#45;&#45; 51 -->
<g id="edge26" class="edge"><title> 7&#45;&#45; 51</title>
<path fill="none" stroke="black" d="M1196.08,-1079.34C1198.85,-1093.97 1202.71,-1114.38 1205.48,-1129"/>
<text text-anchor="middle" x="1204.78" y="-1100.67" font-family="Times,serif" font-size="10.00">1</text>
</g>
<!--  11 -->
<g id="node33" class="node"><title> 11</title>
<text text-anchor="middle" x="1141.71" y="-986.19" font-family="Times,serif" font-size="12.00"> 11</text>
</g>
<!--  7&#45;&#45; 11 -->
<g id="edge28" class="edge"><title> 7&#45;&#45; 11</title>
<path fill="none" stroke="black" d="M1179.51,-1042.89C1171.97,-1032.43 1162.52,-1019.33 1154.95,-1008.85"/>
<text text-anchor="middle" x="1162.23" y="-1025.37" font-family="Times,serif" font-size="10.00">1</text>
</g>
<!--  52 -->
<g id="node90" class="node"><title> 52</title>
<text text-anchor="middle" x="1288.14" y="-1155.42" font-family="Times,serif" font-size="12.00"> 52</text>
</g>
<!--  51&#45;&#45; 52 -->
<g id="edge126" class="edge"><title> 51&#45;&#45; 52</title>
<path fill="none" stroke="black" d="M1236.19,-1151.54C1244.25,-1152.81 1253.06,-1154.2 1261.1,-1155.46"/>
<text text-anchor="middle" x="1248.65" y="-1144" font-family="Times,serif" font-size="10.00">1</text>
</g>
<!--  11&#45;&#45; 68 -->
<g id="edge40" class="edge"><title> 11&#45;&#45; 68</title>
<path fill="none" stroke="black" d="M1132.96,-972.4C1126.9,-959.889 1118.88,-943.303 1112.81,-930.755"/>
<text text-anchor="middle" x="1127.88" y="-946.077" font-family="Times,serif" font-size="10.00">1</text>
</g>
<!--  8 -->
<g id="node34" class="node"><title> 8</title>
<text text-anchor="middle" x="821.047" y="-868.263" font-family="Times,serif" font-size="12.00"> 8</text>
</g>
<!--  14 -->
<g id="node36" class="node"><title> 14</title>
<text text-anchor="middle" x="744.499" y="-909.339" font-family="Times,serif" font-size="12.00"> 14</text>
</g>
<!--  8&#45;&#45; 14 -->
<g id="edge30" class="edge"><title> 8&#45;&#45; 14</title>
<path fill="none" stroke="black" d="M793.844,-887.16C786.624,-891.034 778.83,-895.217 771.615,-899.088"/>
<text text-anchor="middle" x="785.729" y="-895.624" font-family="Times,serif" font-size="10.00">1</text>
</g>
<!--  69 -->
<g id="node38" class="node"><title> 69</title>
<text text-anchor="middle" x="908.464" y="-845.924" font-family="Times,serif" font-size="12.00"> 69</text>
</g>
<!--  8&#45;&#45; 69 -->
<g id="edge32" class="edge"><title> 8&#45;&#45; 69</title>
<path fill="none" stroke="black" d="M848.227,-865.617C858.753,-862.927 870.777,-859.854 881.301,-857.165"/>
<text text-anchor="middle" x="863.764" y="-851.891" font-family="Times,serif" font-size="10.00">1</text>
</g>
<!--  72 -->
<g id="node41" class="node"><title> 72</title>
<text text-anchor="middle" x="891.671" y="-914.478" font-family="Times,serif" font-size="12.00"> 72</text>
</g>
<!--  69&#45;&#45; 72 -->
<g id="edge144" class="edge"><title> 69&#45;&#45; 72</title>
<path fill="none" stroke="black" d="M904.052,-868.236C901.603,-878.233 898.565,-890.633 896.112,-900.649"/>
<text text-anchor="middle" x="904.082" y="-881.942" font-family="Times,serif" font-size="10.00">1</text>
</g>
<!--  9 -->
<g id="node39" class="node"><title> 9</title>
<text text-anchor="middle" x="841.774" y="-975.194" font-family="Times,serif" font-size="12.00"> 9</text>
</g>
<!--  9&#45;&#45; 72 -->
<g id="edge34" class="edge"><title> 9&#45;&#45; 72</title>
<path fill="none" stroke="black" d="M856.745,-961.277C863.06,-953.593 870.397,-944.665 876.711,-936.982"/>
<text text-anchor="middle" x="861.728" y="-941.63" font-family="Times,serif" font-size="10.00">1</text>
</g>
<!--  10 -->
<g id="node42" class="node"><title> 10</title>
<text text-anchor="middle" x="674.205" y="-951.636" font-family="Times,serif" font-size="12.00"> 10</text>
</g>
<!--  10&#45;&#45; 14 -->
<g id="edge38" class="edge"><title> 10&#45;&#45; 14</title>
<path fill="none" stroke="black" d="M701.583,-939.462C706.672,-936.4 711.989,-933.201 717.079,-930.138"/>
<text text-anchor="middle" x="706.331" y="-925.3" font-family="Times,serif" font-size="10.00">1</text>
</g>
<!--  17 -->
<g id="node44" class="node"><title> 17</title>
<text text-anchor="middle" x="605.625" y="-990.242" font-family="Times,serif" font-size="12.00"> 17</text>
</g>
<!--  10&#45;&#45; 17 -->
<g id="edge36" class="edge"><title> 10&#45;&#45; 17</title>
<path fill="none" stroke="black" d="M647.1,-971.194C642.458,-973.808 637.631,-976.525 632.982,-979.142"/>
<text text-anchor="middle" x="637.041" y="-965.668" font-family="Times,serif" font-size="10.00">1</text>
</g>
<!--  12 -->
<g id="node48" class="node"><title> 12</title>
<text text-anchor="middle" x="708.555" y="-91.13" font-family="Times,serif" font-size="12.00"> 12</text>
</g>
<!--  73 -->
<g id="node50" class="node"><title> 73</title>
<text text-anchor="middle" x="723.417" y="-14.7" font-family="Times,serif" font-size="12.00"> 73</text>
</g>
<!--  12&#45;&#45; 73 -->
<g id="edge42" class="edge"><title> 12&#45;&#45; 73</title>
<path fill="none" stroke="black" d="M712.077,-77.3172C714.429,-65.2219 717.511,-49.3708 719.869,-37.2477"/>
<text text-anchor="middle" x="711.973" y="-53.7824" font-family="Times,serif" font-size="10.00">1</text>
</g>
<!--  48 -->
<g id="node52" class="node"><title> 48</title>
<text text-anchor="middle" x="686.997" y="-168.606" font-family="Times,serif" font-size="12.00"> 48</text>
</g>
<!--  12&#45;&#45; 48 -->
<g id="edge44" class="edge"><title> 12&#45;&#45; 48</title>
<path fill="none" stroke="black" d="M703.446,-113.791C700.009,-126.141 695.498,-142.354 692.069,-154.677"/>
<text text-anchor="middle" x="693.758" y="-129.734" font-family="Times,serif" font-size="10.00">1</text>
</g>
<!--  48&#45;&#45; 54 -->
<g id="edge114" class="edge"><title> 48&#45;&#45; 54</title>
<path fill="none" stroke="black" d="M678.503,-191.168C662.945,-224.617 630.053,-295.332 614.58,-328.599"/>
<text text-anchor="middle" x="641.541" y="-254.384" font-family="Times,serif" font-size="10.00">2</text>
</g>
<!--  13 -->
<g id="node53" class="node"><title> 13</title>
<text text-anchor="middle" x="1339.9" y="-1018.98" font-family="Times,serif" font-size="12.00"> 13</text>
</g>
<!--  13&#45;&#45; 71 -->
<g id="edge46" class="edge"><title> 13&#45;&#45; 71</title>
<path fill="none" stroke="black" d="M1312.9,-1028.48C1307.63,-1029.5 1302.1,-1030.56 1296.82,-1031.58"/>
<text text-anchor="middle" x="1303.86" y="-1020.53" font-family="Times,serif" font-size="10.00">1</text>
</g>
<!--  50&#45;&#45; 69 -->
<g id="edge124" class="edge"><title> 50&#45;&#45; 69</title>
<path fill="none" stroke="black" d="M955.315,-817.337C948.46,-822.149 941.06,-827.343 934.209,-832.152"/>
<text text-anchor="middle" x="948.762" y="-827.244" font-family="Times,serif" font-size="10.00">1</text>
</g>
<!--  19 -->
<g id="node63" class="node"><title> 19</title>
<text text-anchor="middle" x="1212.82" y="-1326.09" font-family="Times,serif" font-size="12.00"> 19</text>
</g>
<!--  19&#45;&#45; 51 -->
<g id="edge60" class="edge"><title> 19&#45;&#45; 51</title>
<path fill="none" stroke="black" d="M1212.43,-1312.16C1211.69,-1277.06 1210.06,-1200.46 1209.32,-1165.41"/>
<text text-anchor="middle" x="1214.88" y="-1235.28" font-family="Times,serif" font-size="10.00">2</text>
</g>
<!--  35 -->
<g id="node65" class="node"><title> 35</title>
<text text-anchor="middle" x="1225.97" y="-1407.4" font-family="Times,serif" font-size="12.00"> 35</text>
</g>
<!--  19&#45;&#45; 35 -->
<g id="edge58" class="edge"><title> 19&#45;&#45; 35</title>
<path fill="none" stroke="black" d="M1215.73,-1348.43C1217.9,-1361.82 1220.84,-1379.99 1223.01,-1393.43"/>
<text text-anchor="middle" x="1215.37" y="-1367.43" font-family="Times,serif" font-size="10.00">1</text>
</g>
<!--  42 -->
<g id="node104" class="node"><title> 42</title>
<text text-anchor="middle" x="941.799" y="-1569.69" font-family="Times,serif" font-size="12.00"> 42</text>
</g>
<!--  35&#45;&#45; 42 -->
<g id="edge92" class="edge"><title> 35&#45;&#45; 42</title>
<path fill="none" stroke="black" d="M1198.72,-1427.26C1144.4,-1458.28 1023.21,-1527.49 968.963,-1558.48"/>
<text text-anchor="middle" x="1086.84" y="-1495.37" font-family="Times,serif" font-size="10.00">3</text>
</g>
<!--  45 -->
<g id="node106" class="node"><title> 45</title>
<text text-anchor="middle" x="1270.25" y="-1481.43" font-family="Times,serif" font-size="12.00"> 45</text>
</g>
<!--  35&#45;&#45; 45 -->
<g id="edge94" class="edge"><title> 35&#45;&#45; 45</title>
<path fill="none" stroke="black" d="M1236.91,-1430C1243.78,-1441.48 1252.59,-1456.21 1259.43,-1467.64"/>
<text text-anchor="middle" x="1243.17" y="-1448.32" font-family="Times,serif" font-size="10.00">1</text>
</g>
<!--  21 -->
<g id="node67" class="node"><title> 21</title>
<text text-anchor="middle" x="1457.2" y="-977.57" font-family="Times,serif" font-size="12.00"> 21</text>
</g>
<!--  21&#45;&#45; 71 -->
<g id="edge62" class="edge"><title> 21&#45;&#45; 71</title>
<path fill="none" stroke="black" d="M1429.92,-989.862C1394.23,-1000.31 1332.1,-1018.51 1296.56,-1028.92"/>
<text text-anchor="middle" x="1365.24" y="-1012.89" font-family="Times,serif" font-size="10.00">2</text>
</g>
<!--  22 -->
<g id="node69" class="node"><title> 22</title>
<text text-anchor="middle" x="1264.28" y="-1715.29" font-family="Times,serif" font-size="12.00"> 22</text>
</g>
<!--  37 -->
<g id="node71" class="node"><title> 37</title>
<text text-anchor="middle" x="1222.2" y="-1549.52" font-family="Times,serif" font-size="12.00"> 37</text>
</g>
<!--  22&#45;&#45; 37 -->
<g id="edge64" class="edge"><title> 22&#45;&#45; 37</title>
<path fill="none" stroke="black" d="M1259.69,-1701.54C1251.6,-1669.65 1234.87,-1603.73 1226.78,-1571.86"/>
<text text-anchor="middle" x="1248.24" y="-1632.2" font-family="Times,serif" font-size="10.00">2</text>
</g>
<!--  37&#45;&#45; 45 -->
<g id="edge96" class="edge"><title> 37&#45;&#45; 45</title>
<path fill="none" stroke="black" d="M1235.08,-1535.58C1241.97,-1525.81 1250.44,-1513.81 1257.34,-1504.03"/>
<text text-anchor="middle" x="1241.21" y="-1513.3" font-family="Times,serif" font-size="10.00">1</text>
</g>
<!--  23 -->
<g id="node72" class="node"><title> 23</title>
<text text-anchor="middle" x="1149.56" y="-1545.55" font-family="Times,serif" font-size="12.00"> 23</text>
</g>
<!--  23&#45;&#45; 37 -->
<g id="edge66" class="edge"><title> 23&#45;&#45; 37</title>
<path fill="none" stroke="black" d="M1176.61,-1551.33C1182.58,-1551.66 1188.91,-1552 1194.89,-1552.33"/>
<text text-anchor="middle" x="1185.75" y="-1542.33" font-family="Times,serif" font-size="10.00">1</text>
</g>
<!--  24 -->
<g id="node74" class="node"><title> 24</title>
<text text-anchor="middle" x="1119.48" y="-1790.46" font-family="Times,serif" font-size="12.00"> 24</text>
</g>
<!--  26 -->
<g id="node76" class="node"><title> 26</title>
<text text-anchor="middle" x="1184.88" y="-1620.57" font-family="Times,serif" font-size="12.00"> 26</text>
</g>
<!--  24&#45;&#45; 26 -->
<g id="edge68" class="edge"><title> 24&#45;&#45; 26</title>
<path fill="none" stroke="black" d="M1126.48,-1776.58C1139.06,-1743.88 1165.38,-1675.53 1177.93,-1642.92"/>
<text text-anchor="middle" x="1147.2" y="-1704.25" font-family="Times,serif" font-size="10.00">2</text>
</g>
<!--  26&#45;&#45; 37 -->
<g id="edge74" class="edge"><title> 26&#45;&#45; 37</title>
<path fill="none" stroke="black" d="M1194.49,-1606.58C1200.02,-1596.05 1206.95,-1582.86 1212.49,-1572.31"/>
<text text-anchor="middle" x="1198.49" y="-1583.94" font-family="Times,serif" font-size="10.00">1</text>
</g>
<!--  32 -->
<g id="node81" class="node"><title> 32</title>
<text text-anchor="middle" x="1131.06" y="-1671.73" font-family="Times,serif" font-size="12.00"> 32</text>
</g>
<!--  26&#45;&#45; 32 -->
<g id="edge72" class="edge"><title> 26&#45;&#45; 32</title>
<path fill="none" stroke="black" d="M1165.75,-1643.05C1160.67,-1647.88 1155.19,-1653.09 1150.12,-1657.91"/>
<text text-anchor="middle" x="1153.94" y="-1641.98" font-family="Times,serif" font-size="10.00">1</text>
</g>
<!--  25 -->
<g id="node77" class="node"><title> 25</title>
<text text-anchor="middle" x="1395.34" y="-1656.42" font-family="Times,serif" font-size="12.00"> 25</text>
</g>
<!--  44 -->
<g id="node79" class="node"><title> 44</title>
<text text-anchor="middle" x="1353.18" y="-1507.74" font-family="Times,serif" font-size="12.00"> 44</text>
</g>
<!--  25&#45;&#45; 44 -->
<g id="edge70" class="edge"><title> 25&#45;&#45; 44</title>
<path fill="none" stroke="black" d="M1390.17,-1642.49C1382.08,-1613.95 1366.51,-1559.05 1358.39,-1530.42"/>
<text text-anchor="middle" x="1379.28" y="-1581.96" font-family="Times,serif" font-size="10.00">2</text>
</g>
<!--  44&#45;&#45; 45 -->
<g id="edge108" class="edge"><title> 44&#45;&#45; 45</title>
<path fill="none" stroke="black" d="M1326.03,-1503.43C1316.87,-1500.52 1306.64,-1497.27 1297.47,-1494.37"/>
<text text-anchor="middle" x="1309.75" y="-1501.4" font-family="Times,serif" font-size="10.00">1</text>
</g>
<!--  28 -->
<g id="node85" class="node"><title> 28</title>
<text text-anchor="middle" x="1711" y="-1563.48" font-family="Times,serif" font-size="12.00"> 28</text>
</g>
<!--  40 -->
<g id="node87" class="node"><title> 40</title>
<text text-anchor="middle" x="1425.4" y="-1497.19" font-family="Times,serif" font-size="12.00"> 40</text>
</g>
<!--  28&#45;&#45; 40 -->
<g id="edge78" class="edge"><title> 28&#45;&#45; 40</title>
<path fill="none" stroke="black" d="M1683.88,-1561.48C1629.43,-1548.84 1507.4,-1520.52 1452.76,-1507.84"/>
<text text-anchor="middle" x="1569.32" y="-1524.16" font-family="Times,serif" font-size="10.00">3</text>
</g>
<!--  40&#45;&#45; 44 -->
<g id="edge102" class="edge"><title> 40&#45;&#45; 44</title>
<path fill="none" stroke="black" d="M1398.1,-1505.48C1392.35,-1506.32 1386.28,-1507.21 1380.52,-1508.05"/>
<text text-anchor="middle" x="1389.31" y="-1497.26" font-family="Times,serif" font-size="10.00">1</text>
</g>
<!--  29 -->
<g id="node88" class="node"><title> 29</title>
<text text-anchor="middle" x="1607.53" y="-1080.6" font-family="Times,serif" font-size="12.00"> 29</text>
</g>
<!--  29&#45;&#45; 52 -->
<g id="edge80" class="edge"><title> 29&#45;&#45; 52</title>
<path fill="none" stroke="black" d="M1580.3,-1091.28C1519.96,-1105.42 1375.58,-1139.24 1315.31,-1153.36"/>
<text text-anchor="middle" x="1448.8" y="-1125.82" font-family="Times,serif" font-size="10.00">3</text>
</g>
<!--  57 -->
<g id="node131" class="node"><title> 57</title>
<text text-anchor="middle" x="1462.2" y="-1149.15" font-family="Times,serif" font-size="12.00"> 57</text>
</g>
<!--  52&#45;&#45; 57 -->
<g id="edge128" class="edge"><title> 52&#45;&#45; 57</title>
<path fill="none" stroke="black" d="M1315.34,-1158.74C1348.04,-1157.56 1402.58,-1155.6 1435.2,-1154.42"/>
<text text-anchor="middle" x="1375.27" y="-1147.08" font-family="Times,serif" font-size="10.00">2</text>
</g>
<!--  30 -->
<g id="node91" class="node"><title> 30</title>
<text text-anchor="middle" x="67.9213" y="-225.71" font-family="Times,serif" font-size="12.00"> 30</text>
</g>
<!--  38 -->
<g id="node93" class="node"><title> 38</title>
<text text-anchor="middle" x="180.824" y="-347.161" font-family="Times,serif" font-size="12.00"> 38</text>
</g>
<!--  30&#45;&#45; 38 -->
<g id="edge82" class="edge"><title> 30&#45;&#45; 38</title>
<path fill="none" stroke="black" d="M84.8239,-248.192C106.108,-271.088 142.467,-310.2 163.805,-333.155"/>
<text text-anchor="middle" x="129.315" y="-282.173" font-family="Times,serif" font-size="10.00">2</text>
</g>
<!--  38&#45;&#45; 39 -->
<g id="edge100" class="edge"><title> 38&#45;&#45; 39</title>
<path fill="none" stroke="black" d="M208.154,-356.819C215.407,-358.241 223.238,-359.776 230.487,-361.197"/>
<text text-anchor="middle" x="220.321" y="-349.508" font-family="Times,serif" font-size="10.00">1</text>
</g>
<!--  59 -->
<g id="node109" class="node"><title> 59</title>
<text text-anchor="middle" x="28" y="-402.093" font-family="Times,serif" font-size="12.00"> 59</text>
</g>
<!--  38&#45;&#45; 59 -->
<g id="edge98" class="edge"><title> 38&#45;&#45; 59</title>
<path fill="none" stroke="black" d="M153.502,-361.282C125.685,-371.281 82.8164,-386.689 55.0852,-396.657"/>
<text text-anchor="middle" x="106.293" y="-382.47" font-family="Times,serif" font-size="10.00">2</text>
</g>
<!--  31 -->
<g id="node94" class="node"><title> 31</title>
<text text-anchor="middle" x="1622.5" y="-1498.77" font-family="Times,serif" font-size="12.00"> 31</text>
</g>
<!--  31&#45;&#45; 44 -->
<g id="edge84" class="edge"><title> 31&#45;&#45; 44</title>
<path fill="none" stroke="black" d="M1595.45,-1503.97C1543.82,-1505.69 1431.83,-1509.42 1380.22,-1511.14"/>
<text text-anchor="middle" x="1487.83" y="-1498.06" font-family="Times,serif" font-size="10.00">3</text>
</g>
<!--  33 -->
<g id="node96" class="node"><title> 33</title>
<text text-anchor="middle" x="1486.87" y="-1626.62" font-family="Times,serif" font-size="12.00"> 33</text>
</g>
<!--  33&#45;&#45; 44 -->
<g id="edge88" class="edge"><title> 33&#45;&#45; 44</title>
<path fill="none" stroke="black" d="M1466.57,-1612.86C1441.44,-1590.52 1398.89,-1552.69 1373.68,-1530.27"/>
<text text-anchor="middle" x="1416.12" y="-1573.07" font-family="Times,serif" font-size="10.00">2</text>
</g>
<!--  58 -->
<g id="node98" class="node"><title> 58</title>
<text text-anchor="middle" x="1571.28" y="-1772.24" font-family="Times,serif" font-size="12.00"> 58</text>
</g>
<!--  33&#45;&#45; 58 -->
<g id="edge86" class="edge"><title> 33&#45;&#45; 58</title>
<path fill="none" stroke="black" d="M1497.39,-1649.07C1513.57,-1676.97 1544.37,-1730.12 1560.63,-1758.16"/>
<text text-anchor="middle" x="1534.01" y="-1697.11" font-family="Times,serif" font-size="10.00">2</text>
</g>
<!--  63 -->
<g id="node141" class="node"><title> 63</title>
<text text-anchor="middle" x="1604.74" y="-1838.99" font-family="Times,serif" font-size="12.00"> 63</text>
</g>
<!--  58&#45;&#45; 63 -->
<g id="edge138" class="edge"><title> 58&#45;&#45; 63</title>
<path fill="none" stroke="black" d="M1580.42,-1794.78C1585.14,-1804.19 1590.89,-1815.65 1595.61,-1825.07"/>
<text text-anchor="middle" x="1583.01" y="-1808.42" font-family="Times,serif" font-size="10.00">1</text>
</g>
<!--  34 -->
<g id="node100" class="node"><title> 34</title>
<text text-anchor="middle" x="784.917" y="-1766.38" font-family="Times,serif" font-size="12.00"> 34</text>
</g>
<!--  43 -->
<g id="node102" class="node"><title> 43</title>
<text text-anchor="middle" x="830.161" y="-1704.95" font-family="Times,serif" font-size="12.00"> 43</text>
</g>
<!--  34&#45;&#45; 43 -->
<g id="edge90" class="edge"><title> 34&#45;&#45; 43</title>
<path fill="none" stroke="black" d="M798.247,-1752.58C804.086,-1744.66 810.925,-1735.37 816.77,-1727.43"/>
<text text-anchor="middle" x="812.509" y="-1739.51" font-family="Times,serif" font-size="10.00">1</text>
</g>
<!--  42&#45;&#45; 43 -->
<g id="edge106" class="edge"><title> 42&#45;&#45; 43</title>
<path fill="none" stroke="black" d="M926.743,-1592.23C905.436,-1618.05 866.706,-1664.97 845.335,-1690.86"/>
<text text-anchor="middle" x="881.039" y="-1634.05" font-family="Times,serif" font-size="10.00">2</text>
</g>
<!--  41 -->
<g id="node112" class="node"><title> 41</title>
<text text-anchor="middle" x="1079" y="-1219.34" font-family="Times,serif" font-size="12.00"> 41</text>
</g>
<!--  41&#45;&#45; 51 -->
<g id="edge104" class="edge"><title> 41&#45;&#45; 51</title>
<path fill="none" stroke="black" d="M1106.24,-1207.63C1128.41,-1194.59 1159.57,-1176.28 1181.73,-1163.25"/>
<text text-anchor="middle" x="1140.98" y="-1175.94" font-family="Times,serif" font-size="10.00">2</text>
</g>
<!--  47 -->
<g id="node116" class="node"><title> 47</title>
<text text-anchor="middle" x="657.803" y="-406.985" font-family="Times,serif" font-size="12.00"> 47</text>
</g>
<!--  47&#45;&#45; 54 -->
<g id="edge112" class="edge"><title> 47&#45;&#45; 54</title>
<path fill="none" stroke="black" d="M643.428,-393.271C636.39,-384.451 627.931,-373.85 620.855,-364.983"/>
<text text-anchor="middle" x="637.142" y="-371.627" font-family="Times,serif" font-size="10.00">1</text>
</g>
<!--  60 -->
<g id="node118" class="node"><title> 60</title>
<text text-anchor="middle" x="696.374" y="-481.547" font-family="Times,serif" font-size="12.00"> 60</text>
</g>
<!--  47&#45;&#45; 60 -->
<g id="edge110" class="edge"><title> 47&#45;&#45; 60</title>
<path fill="none" stroke="black" d="M667.14,-429.334C673.159,-440.971 680.96,-456.05 686.989,-467.705"/>
<text text-anchor="middle" x="672.064" y="-447.02" font-family="Times,serif" font-size="10.00">1</text>
</g>
<!--  49 -->
<g id="node121" class="node"><title> 49</title>
<text text-anchor="middle" x="943.624" y="-709.968" font-family="Times,serif" font-size="12.00"> 49</text>
</g>
<!--  49&#45;&#45; 65 -->
<g id="edge122" class="edge"><title> 49&#45;&#45; 65</title>
<path fill="none" stroke="black" d="M936.645,-696.058C930.865,-680.974 922.691,-659.644 916.914,-644.567"/>
<text text-anchor="middle" x="931.78" y="-665.812" font-family="Times,serif" font-size="10.00">1</text>
</g>
<!--  49&#45;&#45; 50 -->
<g id="edge120" class="edge"><title> 49&#45;&#45; 50</title>
<path fill="none" stroke="black" d="M951.581,-732.282C957.905,-746.598 966.714,-766.54 973.068,-780.927"/>
<text text-anchor="middle" x="967.325" y="-751.104" font-family="Times,serif" font-size="10.00">1</text>
</g>
<!--  70 -->
<g id="node123" class="node"><title> 70</title>
<text text-anchor="middle" x="996.349" y="-675.294" font-family="Times,serif" font-size="12.00"> 70</text>
</g>
<!--  49&#45;&#45; 70 -->
<g id="edge116" class="edge"><title> 49&#45;&#45; 70</title>
<path fill="none" stroke="black" d="M970.913,-696.321C971.014,-696.255 971.114,-696.189 971.215,-696.123"/>
<text text-anchor="middle" x="971.064" y="-686.722" font-family="Times,serif" font-size="10.00">1</text>
</g>
<!--  67 -->
<g id="node125" class="node"><title> 67</title>
<text text-anchor="middle" x="879.957" y="-726.006" font-family="Times,serif" font-size="12.00"> 67</text>
</g>
<!--  49&#45;&#45; 67 -->
<g id="edge118" class="edge"><title> 49&#45;&#45; 67</title>
<path fill="none" stroke="black" d="M916.623,-721.07C913.505,-721.855 910.324,-722.656 907.203,-723.443"/>
<text text-anchor="middle" x="912.913" y="-724.756" font-family="Times,serif" font-size="10.00">1</text>
</g>
<!--  53 -->
<g id="node132" class="node"><title> 53</title>
<text text-anchor="middle" x="760.521" y="-535.17" font-family="Times,serif" font-size="12.00"> 53</text>
</g>
<!--  53&#45;&#45; 60 -->
<g id="edge132" class="edge"><title> 53&#45;&#45; 60</title>
<path fill="none" stroke="black" d="M738.804,-521.315C732.116,-515.725 724.755,-509.572 718.069,-503.983"/>
<text text-anchor="middle" x="732.436" y="-504.149" font-family="Times,serif" font-size="10.00">1</text>
</g>
<!--  61 -->
<g id="node134" class="node"><title> 61</title>
<text text-anchor="middle" x="834.445" y="-577.036" font-family="Times,serif" font-size="12.00"> 61</text>
</g>
<!--  53&#45;&#45; 61 -->
<g id="edge130" class="edge"><title> 53&#45;&#45; 61</title>
<path fill="none" stroke="black" d="M787.628,-554.821C794.056,-558.462 800.913,-562.345 807.341,-565.986"/>
<text text-anchor="middle" x="800.485" y="-550.904" font-family="Times,serif" font-size="10.00">1</text>
</g>
<!--  61&#45;&#45; 65 -->
<g id="edge140" class="edge"><title> 61&#45;&#45; 65</title>
<path fill="none" stroke="black" d="M861.702,-597.598C868.544,-601.68 875.887,-606.06 882.727,-610.142"/>
<text text-anchor="middle" x="875.215" y="-594.37" font-family="Times,serif" font-size="10.00">1</text>
</g>
<!--  55 -->
<g id="node136" class="node"><title> 55</title>
<text text-anchor="middle" x="629.552" y="-524.77" font-family="Times,serif" font-size="12.00"> 55</text>
</g>
<!--  55&#45;&#45; 60 -->
<g id="edge134" class="edge"><title> 55&#45;&#45; 60</title>
<path fill="none" stroke="black" d="M656.731,-511.489C660.778,-508.872 664.951,-506.172 669.002,-503.552"/>
<text text-anchor="middle" x="659.866" y="-498.021" font-family="Times,serif" font-size="10.00">1</text>
</g>
<!--  56 -->
<g id="node138" class="node"><title> 56</title>
<text text-anchor="middle" x="859.446" y="-506.142" font-family="Times,serif" font-size="12.00"> 56</text>
</g>
<!--  56&#45;&#45; 61 -->
<g id="edge136" class="edge"><title> 56&#45;&#45; 61</title>
<path fill="none" stroke="black" d="M853.008,-528.699C849.304,-539.202 844.663,-552.361 840.948,-562.894"/>
<text text-anchor="middle" x="841.978" y="-541.297" font-family="Times,serif" font-size="10.00">1</text>
</g>
</g>
</svg>
